<svg xmlns="http://www.w3.org/2000/svg" xmlns:xlink="http://www.w3.org/1999/xlink" viewBox="0 0 400 300" width="406" height="306" class="illustration styles_illustrationTablet__1DWOa"><defs><linearGradient id="linear-gradient" x1="342.61" y1="145.38" x2="393.91" y2="215.69" gradientTransform="matrix(-1, 0, 0, 1, 582.31, 0)" gradientUnits="userSpaceOnUse"><stop offset="0" stop-color="#226a00"></stop><stop offset="1" stop-color="#fff"></stop></linearGradient></defs><title>PP</title><g style="isolation: isolate;"><g id="Layer_2" data-name="Layer 2"><path d="M195.29,259.52,22.79,157.58c-5.49-3.08-10.2-8.15-4.85-11.46L191.07,46.34c2.6-1.61,6.54-2.66,9.18-1.13L381.33,150.3c5.49,3.19,6.48,12.1,1,15.29L218,259.36A22.94,22.94,0,0,1,195.29,259.52Z" fill="#db6d23"></path><path d="M234.59,169.47c-3.73-2.36-49.23,12.33-64.94-7.77s15.83-19.31,35.52-10.19S234.59,169.47,234.59,169.47Z" fill="#c3ea75"></path><path d="M223.69,164.08c-2.47-3.66-50-8.52-56.33-33.24s22.26-11.31,36.62,5S223.69,164.08,223.69,164.08Z" fill="#aace52"></path><path d="M217.93,155.08c-1.1-4.28-44.27-24.82-41.9-50.22s24.77-3.18,32.83,17S217.93,155.08,217.93,155.08Z" fill="#9cbc3b"></path><path d="M261.08,166.37c3.3-2.94,1.73-50.72,25.38-60.28s14.19,20.54,0,37S261.08,166.37,261.08,166.37Z" fill="#c3ea75"></path><path d="M251.31,176.55c4.2-1.36,22-45.74,47.48-45s4.73,24.52-14.87,33.83S251.31,176.55,251.31,176.55Z" fill="#aace52"></path><path d="M251.31,179.68c4.41.13,36.07-35.7,59.83-26.42s-3.78,24.68-25.36,26.87S251.31,179.68,251.31,179.68Z" fill="#9cbc3b"></path><path d="M270.47,183.38,212.79,157l-71.87,43.59c4.7,2.5,37.74,22,51.38,30C219.12,216.17,244.68,199.56,270.47,183.38Z" fill="url(#linear-gradient)" style="mix-blend-mode: multiply;"></path><circle cx="82.03" cy="131.82" r="6.78" fill="#ffda22"></circle><path d="M106.44,165s1.88,7.53,1.38,9.54-7.53,10.29-6.27,10.41,6.27-7,7.53-6.15,5,9.16,5.9,8.53-3.43-8.91-1.72-8.91,7.36,1.25,7.36.13-7.28-.38-8.41-3.51-1.76-12.8-1.76-12.8" fill="#ffb024"></path><path d="M122.25,154.94s1.51,9.79,0,10.29-7.4,1.76-5.65,2.38,6-.75,6.32,0,6.7,8.34,6.86,7.17-2.64-6.59-1.38-6.57,9.66,2.54,9.91,1.53-8.91-1.88-8.91-3.14,6-.88,5.14-2.13-7.15.13-8-.5-.75-9.79-.75-9.79" fill="#ffb024"></path><path d="M144.2,129.69c4.39-12.35-3-23-17.11-22.86-5.16.06-12.16,4.24-12.16,9.72,0,0-20.71-8.16-30.06,7.76s-.2,31.26,12.54,35.24,43.2,2.59,43.6-20.91Z" fill="#ffda22"></path><circle cx="107.02" cy="157.81" r="10.4" fill="#ffda22"></circle><path d="M142.65,130.89a8.24,8.24,0,0,1,3.28-8.63s7.36,5.6,6.36,6.73S142.65,130.89,142.65,130.89Z" fill="#e7a48a"></path><ellipse cx="133.37" cy="122.25" rx="2.5" ry="2.79" transform="translate(-45.83 147.15) rotate(-50.42)" fill="#3f271f"></ellipse><path d="M120.11,109s-6.29,9.27-2.68,16.06C117.42,125,109.47,115,120.11,109Z" fill="#d8a71e"></path><path d="M209.68,130.53c4.9,5.06,7.33,12.25,15.43,12.65,7.24.36,11-5.36,15.4-10,3.91-4.12,8.57-7.39,14.5-7.17s11.27,4.06,14.65,8.71c2.44,3.35,4.06,9,8.73,4.28,2.08-2.09,3.23-5,5.27-7.2a13.81,13.81,0,0,1,6.15-3.84,125.46,125.46,0,0,0-2.07-17.43,7,7,0,0,0-3.35-.24c-3.42.59-4.65,3.4-6.37,6-2.87,4.38-6.84,7.45-12.31,7.17s-8.56-4.11-11.84-8.09c-3.53-4.29-9.47-6.13-14.25-2.41-4.26,3.3-5.23,9-10.23,11.87a15.17,15.17,0,0,1-14.81-.08c-4.09-2.38-6.52-6.4-9.74-9.7-5.92-6.06-12.9-2.44-16,4.43a4,4,0,0,1-.68,1q-.37,2.7-.61,5.41A20.67,20.67,0,0,1,209.68,130.53Z" fill="#4da6e7"></path><path d="M211.35,110.33c3.84,4.28,9,12.22,15.47,6.51,2.43-2.16,3.47-5.71,5.65-8.14a16.72,16.72,0,0,1,6.47-4.44,18.4,18.4,0,0,1,15.91,1.21c4.58,2.74,9.09,13.83,15.12,8.38,2.51-2.26,3.44-5.94,6.08-8.24a14.23,14.23,0,0,1,6.21-3.06,15.21,15.21,0,0,1,3.55-.36,83.13,83.13,0,0,0-3-8.73c-2.51.94-4.54,4.25-6.68,6.23-3.2,2.95-7.7,3.3-11.65,1.8-5.4-2-8.13-7.44-12.89-10.34s-8.19-.91-11.75,2.42c-5.48,5.12-10.69,11.78-19,11.15-4.89-.37-9-3.3-12.55-6.44-3.23-2.86-7.59-7.84-12.13-7A114.93,114.93,0,0,0,191.87,103c-.26.87-.51,1.75-.75,2.63C197.6,102.58,205.5,103.82,211.35,110.33Z" fill="#4da6e7"></path><path d="M218,95.6c8.91,4.62,15.31-8.66,22.25-12.25a14.83,14.83,0,0,1,13.25-.27,27,27,0,0,1,7.39,5.4c2.18,2.12,5.74,7.22,9.39,5.65,1.83-.78,3.19-4.12,4.68-5.47a13,13,0,0,1,4.43-2.6c-9.58-18.5-25.85-34.85-43.34-34-8.39.42-17.06,4.81-25.4,14.82a91.91,91.91,0,0,0-10.84,16.49,16.53,16.53,0,0,1,3.54,1.11C209.06,87.09,212.47,92.76,218,95.6Z" fill="#4da6e7"></path><path d="M281.34,146.95c-4.37,3-9.68,2.88-13.52-.92-4.34-4.29-6.22-12.27-13.74-12-5.44.19-8.92,6.19-12.34,9.7-7.63,7.85-19.57,10.35-28.67,3.16-4.75-3.75-7-10.62-12.51-13.29a13,13,0,0,0-13.48,1.59c.07,30,13.93,58.07,53.49,58.63,36.5.52,48.48-28.19,49.33-56.83C286.74,139.67,284.33,144.92,281.34,146.95Z" fill="#4da6e7"></path><path d="M204.83,115c3.22,3.3,5.65,7.32,9.74,9.7a15.17,15.17,0,0,0,14.81.08c5-2.82,6-8.56,10.23-11.87,4.78-3.71,10.72-1.87,14.25,2.41,3.28,4,6.25,7.8,11.84,8.09s9.45-2.79,12.31-7.17c1.71-2.62,2.95-5.44,6.37-6a7,7,0,0,1,3.35.24c-.35-1.86-.74-3.67-1.17-5.42-.23-1-.49-1.92-.77-2.89a15.21,15.21,0,0,0-3.55.36A14.23,14.23,0,0,0,276,105.6c-2.64,2.3-3.57,6-6.08,8.24-6,5.44-10.54-5.64-15.12-8.38a18.4,18.4,0,0,0-15.91-1.21,16.72,16.72,0,0,0-6.47,4.44c-2.18,2.43-3.22,6-5.65,8.14-6.43,5.71-11.63-2.24-15.47-6.51-5.85-6.51-13.75-7.75-20.23-4.66a117,117,0,0,0-3,14.82,4,4,0,0,0,.68-1C191.93,112.6,198.91,109,204.83,115Z" fill="#ffa4a4"></path><path d="M208.22,98.27c3.55,3.14,7.66,6.08,12.55,6.44,8.34.63,13.54-6,19-11.15,3.56-3.33,7.09-5.26,11.75-2.42s7.49,8.3,12.89,10.34c3.95,1.5,8.45,1.15,11.65-1.8,2.14-2,4.17-5.29,6.68-6.23-1-2.47-2.16-4.94-3.42-7.37a13,13,0,0,0-4.43,2.6c-1.49,1.34-2.86,4.68-4.68,5.47-3.65,1.57-7.21-3.53-9.39-5.65a27,27,0,0,0-7.39-5.4,14.83,14.83,0,0,0-13.25.27c-6.93,3.59-13.34,16.87-22.25,12.25-5.48-2.85-8.9-8.51-14.66-11.06a16.53,16.53,0,0,0-3.54-1.11c-1.33,2.57-2.56,5.19-3.68,7.83C200.62,90.43,205,95.41,208.22,98.27Z" fill="#ffa4a4"></path><path d="M289.81,127.93a13.81,13.81,0,0,0-6.15,3.84c-2,2.16-3.19,5.11-5.27,7.2-4.66,4.68-6.29-.92-8.73-4.28-3.38-4.65-8.73-8.49-14.65-8.71s-10.59,3.06-14.5,7.17c-4.43,4.66-8.16,10.38-15.4,10-8.1-.4-10.53-7.59-15.43-12.65a20.67,20.67,0,0,0-22.19-4.64c-.27,3.1-.41,6.2-.4,9.28a13,13,0,0,1,13.48-1.59c5.55,2.67,7.76,9.54,12.51,13.29,9.1,7.18,21,4.68,28.67-3.16,3.41-3.51,6.89-9.51,12.34-9.7,7.52-.26,9.4,7.72,13.74,12,3.85,3.8,9.15,3.9,13.52.92,3-2,5.4-7.28,8.55-10C290,133.94,289.95,130.92,289.81,127.93Z" fill="#ffa4a4"></path><path d="M262.75,184.37c-29.13-4-55.54-23.95-62.16-53.35-4.28-19-1.41-39.31,5.58-57.75a97.27,97.27,0,0,0-6.11,10.16c-1.33,2.57-2.56,5.19-3.68,7.83A114.93,114.93,0,0,0,192.17,103c-.26.87-.51,1.75-.75,2.63a117,117,0,0,0-3,14.82q-.37,2.7-.61,5.41c-.27,3.1-.41,6.2-.4,9.28.07,30,13.93,58.07,53.49,58.63,12.65.18,22.36-3.16,29.67-8.78C268,184.93,265.36,184.72,262.75,184.37Z" fill="#16a79e" opacity="0.41" style="mix-blend-mode: multiply;"></path><ellipse cx="261.43" cy="76.4" rx="6.09" ry="8.38" fill="#ffda22"></ellipse><circle cx="218.99" cy="81.66" r="8.06" fill="#ffda22"></circle><circle cx="259.37" cy="161.98" r="12.58" fill="#ffda22"></circle><circle cx="232.47" cy="165.43" r="5.41" fill="#ffda22"></circle><circle cx="209.65" cy="160.12" r="10.72" fill="#ffda22"></circle><ellipse cx="239.92" cy="181.99" rx="7.28" ry="5.56" fill="#ffda22"></ellipse><circle cx="238.51" cy="65.89" r="8.28" fill="#ffda22"></circle><path d="M238.65,191s-25.87-14.62-20.72-25.57S240.27,182,243.74,182s-5.13-25.77,7.76-25,1,32.94,7.87,30.35,11.83-24.6,18.2-23.27-.16,25.13-5.62,26.93" fill="#aace52"></path><path d="M242.17,201.54q-1.57,0-3.13-.1c-8.29-.45-24.29-1.76-24.17-13.22.14-13.66,22.79,1.55,26.39-1.81s-15.73-26.41,0-25.29,1.92,27.1,10.91,22.91-.33-26.13,15.91-22-11.54,26.36-3.44,25.89,16-23.26,22.53-13.39c4.07,6.18-6.73,14.1-10.75,16.91C266.5,198.46,254.27,201.63,242.17,201.54Z" fill="#c3ea75"></path></g></g></svg>