<svg viewBox="0 0 32 32" fill="none" xmlns="http://www.w3.org/2000/svg">
<path fill-rule="evenodd" clip-rule="evenodd" d="M16 0C6.98766 0 0 6.60289 0 15.5226C0 20.1862 1.91314 24.2192 5.02305 27.0036C5.28472 27.2396 5.44343 27.5657 5.4563 27.9132L5.54209 30.7577C5.57212 31.6673 6.50724 32.255 7.33941 31.8904L10.5137 30.4917C10.7839 30.3716 11.0842 30.3501 11.3673 30.4273C12.8257 30.8306 14.3785 31.0409 16 31.0409C25.0123 31.0409 32 24.438 32 15.5183C31.9957 6.60289 25.0123 0 16 0ZM25.6043 11.9444L20.9072 19.3968C20.1609 20.5809 18.5566 20.877 17.437 20.0361L13.7008 17.2302C13.3576 16.9727 12.8858 16.977 12.5469 17.2344L7.49812 21.07C6.82466 21.5806 5.9453 20.774 6.39571 20.0575L11.097 12.6008C11.8434 11.4167 13.4477 11.1207 14.5673 11.9616L18.3035 14.7675C18.6466 15.0249 19.1185 15.0206 19.4574 14.7632L24.5062 10.9319C25.1753 10.4213 26.059 11.2279 25.6043 11.9444Z" fill="url(#paint0_radial)"/>
<defs>
<radialGradient id="paint0_radial" cx="0" cy="0" r="1" gradientUnits="userSpaceOnUse" gradientTransform="translate(6.15918 31.8289) scale(34.8671)">
<stop stop-color="#0099FF"/>
<stop offset="0.609754" stop-color="#A033FF"/>
<stop offset="0.934823" stop-color="#FF5280"/>
<stop offset="1" stop-color="#FF7061"/>
</radialGradient>
</defs>
</svg>
