<svg viewBox="0 0 49 22" xmlns="http://www.w3.org/2000/svg"><g id="svgGroup" stroke-linecap="round" fill-rule="evenodd" font-size="9pt" stroke="#000" stroke-width="0.25mm" fill="#000" style="stroke:#e37400;stroke-width:0.25mm;fill:#e37400"><path d="M 34.176 20.608 L 34.56 16.32 Q 36 17.216 37.584 17.712 A 11.708 11.708 0 0 0 39.016 18.068 Q 39.792 18.207 40.501 18.208 A 7.417 7.417 0 0 0 40.512 18.208 A 6.043 6.043 0 0 0 41.542 18.125 Q 42.124 18.025 42.595 17.801 A 3.259 3.259 0 0 0 43.008 17.568 A 2.396 2.396 0 0 0 43.564 17.067 A 1.868 1.868 0 0 0 43.968 15.872 A 1.856 1.856 0 0 0 43.882 15.291 A 1.473 1.473 0 0 0 43.328 14.544 A 4.806 4.806 0 0 0 42.883 14.261 Q 42.392 13.982 41.659 13.677 A 20.273 20.273 0 0 0 41.312 13.536 L 40.544 13.216 Q 40.384 13.152 40.192 13.072 A 10.715 10.715 0 0 0 40.012 12.999 Q 39.919 12.962 39.815 12.923 A 18.966 18.966 0 0 0 39.744 12.896 A 32.163 32.163 0 0 1 38.595 12.399 Q 38.087 12.167 37.654 11.943 A 13.916 13.916 0 0 1 36.864 11.504 Q 35.776 10.848 34.992 9.664 Q 34.208 8.48 34.208 6.592 Q 34.208 3.52 36.288 1.76 A 6.937 6.937 0 0 1 38.844 0.42 Q 39.867 0.118 41.091 0.033 A 14.307 14.307 0 0 1 42.08 0 Q 44.896 0 47.84 1.152 L 47.136 5.376 Q 45.952 4.704 44.592 4.32 Q 43.232 3.936 42.016 3.936 A 6.191 6.191 0 0 0 41.142 3.994 Q 40.683 4.059 40.309 4.199 A 2.724 2.724 0 0 0 39.68 4.528 A 2.06 2.06 0 0 0 39.141 5.075 Q 38.848 5.523 38.848 6.112 Q 38.848 6.976 39.424 7.456 Q 39.935 7.882 41 8.358 A 16.444 16.444 0 0 0 41.28 8.48 L 42.592 8.992 Q 44.008 9.529 45.052 10.048 A 15.836 15.836 0 0 1 45.664 10.368 A 5.898 5.898 0 0 1 47.408 11.851 A 7.131 7.131 0 0 1 47.744 12.304 A 4.672 4.672 0 0 1 48.405 13.807 Q 48.608 14.608 48.608 15.584 A 7.3 7.3 0 0 1 48.323 17.678 A 5.494 5.494 0 0 1 46.496 20.416 A 7.071 7.071 0 0 1 44.014 21.698 Q 42.991 22.005 41.765 22.1 A 14.864 14.864 0 0 1 40.608 22.144 A 14.951 14.951 0 0 1 37.708 21.869 A 13.598 13.598 0 0 1 37.072 21.728 A 13.131 13.131 0 0 1 35.599 21.275 Q 34.828 20.984 34.186 20.614 A 8.342 8.342 0 0 1 34.176 20.608 Z M 5.824 21.728 L 5.824 4.448 L 0 4.448 L 0 0.416 L 16.256 0.416 L 16.256 4.448 L 10.496 4.448 L 10.496 21.728 L 5.824 21.728 Z M 19.456 21.728 L 19.456 0.416 L 24.096 0.416 L 24.096 17.696 L 31.776 17.696 L 31.776 21.728 L 19.456 21.728 Z"/></g></svg>